<svg width="24" height="24" viewBox="0 0 24 24" fill="none" xmlns="http://www.w3.org/2000/svg">
<path fill-rule="evenodd" clip-rule="evenodd" d="M5.20422 7H7.00056C7.00056 4.23858 9.23913 2 12.0006 2C14.762 2 17.0006 4.23858 17.0006 7H18.7969C19.3161 7 19.7489 7.39731 19.7932 7.9146L20.9075 20.9146C20.9576 21.4984 20.4972 22 19.9112 22H4.08994C3.50396 22 3.04355 21.4984 3.09359 20.9146L4.20788 7.9146C4.25222 7.39732 4.68504 7 5.20422 7ZM12.0006 4C13.6574 4 15.0006 5.34315 15.0006 7H9.00056C9.00056 5.34315 10.3437 4 12.0006 4ZM9 10C9 11.6569 10.3431 13 12 13C13.6569 13 15 11.6569 15 10C15 9.44775 15.4477 9 16 9C16.5523 9 17 9.44775 17 10C17 12.7615 14.7614 15 12 15C9.23859 15 7 12.7615 7 10C7 9.44775 7.4477 9 8 9C8.55231 9 9 9.44775 9 10Z" fill="white"/>
</svg>
