<svg width="12" height="12" viewBox="0 0 12 12" fill="none" xmlns="http://www.w3.org/2000/svg">
<path fill-rule="evenodd" clip-rule="evenodd" d="M2.6021 3.49994H3.49848C3.49852 2.11926 4.61779 1 5.99849 1C7.37918 1 8.49845 2.11926 8.49849 3.49994H9.39843C9.65802 3.49994 9.87444 3.6986 9.89661 3.95724L10.4538 10.4572C10.4788 10.7492 10.2486 10.9999 9.95558 10.9999H2.04496C1.75197 10.9999 1.52176 10.7492 1.54678 10.4572L2.10393 3.95724C2.1261 3.6986 2.34251 3.49994 2.6021 3.49994ZM5.99734 2.00012C5.16897 2.00012 4.49744 2.6716 4.49734 3.49994H7.49734C7.49724 2.6716 6.8257 2.00012 5.99734 2.00012ZM5.99858 7.49994C7.36747 7.49994 8.47939 6.39974 8.49834 5.03536C8.49915 5.02372 8.49956 5.01197 8.49956 5.00012C8.49956 4.98831 8.49915 4.97659 8.49834 4.96498L8.49809 4.95003V4.96156C8.47841 4.70344 8.26273 4.50012 7.99956 4.50012C7.72346 4.50012 7.49963 4.72391 7.49956 5H7.49761V5.00006C7.49761 5.82849 6.82603 6.50006 5.99761 6.50006C5.18037 6.50006 4.51577 5.8465 4.49797 5.03354C4.4987 5.02249 4.49907 5.01135 4.49907 5.00012C4.49907 4.72398 4.27521 4.50012 3.99907 4.50012C3.72297 4.50012 3.49914 4.72391 3.49907 5H3.49858C3.49862 6.38068 4.61789 7.49994 5.99858 7.49994Z" fill="white"/>
</svg>
