<svg width="16" height="16" viewBox="0 0 16 16" fill="none" xmlns="http://www.w3.org/2000/svg">
<path fill-rule="evenodd" clip-rule="evenodd" d="M4.66429 4.66659V4.66662H3.46817C3.12205 4.66662 2.83349 4.93149 2.80394 5.27635L2.06108 13.943C2.02772 14.3322 2.33466 14.6666 2.72531 14.6666H13.2728C13.6635 14.6666 13.9704 14.3322 13.937 13.943L13.1942 5.27635C13.1646 4.93149 12.8761 4.66662 12.5299 4.66662H11.331V4.66659C11.331 2.82564 9.83857 1.33325 7.99762 1.33325C6.15667 1.33325 4.66429 2.82564 4.66429 4.66659ZM7.9971 2.66665C6.89254 2.66665 5.99712 3.56206 5.9971 4.66662H9.9971C9.99708 3.56206 9.10166 2.66665 7.9971 2.66665ZM7.9959 9.99982C9.8183 9.99982 11.2991 8.53736 11.3288 6.72202C11.3303 6.70375 11.331 6.68526 11.331 6.6666C11.331 6.29841 11.0326 5.99993 10.6644 5.99993C10.2962 5.99993 9.99772 6.2984 9.99771 6.66658H9.99538C9.99536 7.77114 9.09993 8.66655 7.99538 8.66655C6.90884 8.66655 6.02467 7.80012 5.99609 6.72049C5.99751 6.70269 5.99824 6.6847 5.99824 6.66654C5.99824 6.29835 5.69976 5.99987 5.33157 5.99987C4.96338 5.99987 4.66491 6.29835 4.66491 6.66654V6.66658H4.66295V6.61494C4.66269 6.63209 4.66256 6.64927 4.66256 6.66649C4.66256 8.50744 6.15495 9.99982 7.9959 9.99982Z" fill="white"/>
</svg>
