<svg width="20" height="20" viewBox="0 0 20 20" fill="none" xmlns="http://www.w3.org/2000/svg">
<path fill-rule="evenodd" clip-rule="evenodd" d="M5.83248 5.83341V5.8335H4.33618C3.90353 5.8335 3.54284 6.16459 3.5059 6.59566L2.57732 17.429C2.53562 17.9155 2.9193 18.3335 3.40761 18.3335H16.592C17.0803 18.3335 17.464 17.9155 17.4223 17.429L16.4937 6.59566C16.4567 6.16459 16.0961 5.8335 15.6634 5.8335H14.1658V5.83341C14.1658 3.53223 12.3003 1.66675 9.99914 1.66675C7.69796 1.66675 5.83248 3.53223 5.83248 5.83341ZM7.49914 5.83341V5.8335H12.4991V5.83341C12.4991 4.4527 11.3799 3.33341 9.99914 3.33341C8.61843 3.33341 7.49914 4.4527 7.49914 5.83341ZM9.99786 12.5001C12.2816 12.5001 14.1361 10.6628 14.1642 8.38579C14.1653 8.36847 14.1658 8.35101 14.1658 8.33341C14.1658 7.87318 13.7927 7.50008 13.3325 7.50008C12.8722 7.50008 12.4992 7.87318 12.4992 8.33341V8.3335H12.4979C12.4978 9.71417 11.3785 10.8334 9.99786 10.8334C8.63071 10.8334 7.51988 9.73601 7.49818 8.37404C7.49883 8.36058 7.49915 8.34703 7.49915 8.33341C7.49915 7.87318 7.12606 7.50008 6.66582 7.50008C6.20558 7.50008 5.83248 7.87318 5.83248 8.33341V8.3335H5.83184V8.25918C5.83141 8.28387 5.83119 8.30862 5.83119 8.33341C5.83119 10.6346 7.69667 12.5001 9.99786 12.5001Z" fill="white"/>
</svg>
