<svg width="40" height="41" viewBox="0 0 40 41" fill="none" xmlns="http://www.w3.org/2000/svg">
<path fill-rule="evenodd" clip-rule="evenodd" d="M20.2614 4.47977C20.5585 4.63385 20.8351 4.83597 21.0768 5.07766L35.4215 19.4224C36.7243 20.7252 36.7233 22.8346 35.4215 24.1364L23.6364 35.9215C22.3346 37.2233 20.2252 37.2243 18.9224 35.9215L4.57766 21.5768C3.95388 20.953 3.60142 20.104 3.60156 19.2199V7.43483C3.60127 5.59369 5.09369 4.10127 6.93483 4.10156H18.7199C19.2623 4.10243 19.7895 4.23348 20.2614 4.47977ZM14.2083 14.7083C15.5101 13.4065 15.5111 11.2971 14.2083 9.99426C12.9055 8.69145 10.7961 8.69246 9.49426 9.99426C8.19246 11.2961 8.19145 13.4055 9.49426 14.7083C10.7971 16.0111 12.9065 16.0101 14.2083 14.7083Z" fill="#E4003F"/>
</svg>
