<svg width="24" height="24" viewBox="0 0 24 24" fill="none" xmlns="http://www.w3.org/2000/svg">
<path fill-rule="evenodd" clip-rule="evenodd" d="M21.75 6.35349C21.9452 6.15823 21.9452 5.84165 21.75 5.64639L18.9571 2.85349C18.6421 2.53851 18.1035 2.7616 18.1035 3.20705V4.99994H15.1035C13.833 4.99994 12.6732 5.47382 11.7911 6.25446C12.225 6.79676 12.5668 7.41596 12.7926 8.08838C13.3426 7.42383 14.1736 7.00037 15.1035 6.99994H18.1035V8.79283C18.1035 9.23829 18.6421 9.46137 18.9571 9.14639L21.75 6.35349ZM21.75 18.3535C21.9452 18.1582 21.9452 17.8416 21.75 17.6464L18.9571 14.8535C18.6421 14.5385 18.1035 14.7616 18.1035 15.207V16.9999H15.1035C13.4476 16.9989 12.1055 15.6561 12.1055 13.9999H12.1035V9.99994C12.1035 9.72564 12.0814 9.4565 12.0389 9.19419C11.9294 8.51784 11.6841 7.88697 11.332 7.33041C11.2602 7.21692 11.184 7.10652 11.1035 6.99945C10.1913 5.78528 8.73911 4.99994 7.10352 4.99994H3.10352C2.55123 4.99994 2.10352 5.44766 2.10352 5.99994C2.10352 6.55223 2.55123 6.99994 3.10352 6.99994H7.10352C8.76038 6.99994 10.1035 8.34308 10.1035 9.99994V13.9999C10.1035 14.2748 10.1257 14.5445 10.1684 14.8074C10.2988 15.6107 10.6206 16.3497 11.0855 16.9763L11.1035 17.0004C12.0157 18.2146 13.4679 18.9999 15.1035 18.9999H18.1035V20.7928C18.1035 21.2383 18.6421 21.4614 18.9571 21.1464L21.75 18.3535ZM2.10352 17.9999C2.10352 17.4477 2.55123 16.9999 3.10352 16.9999H7.10352C8.03345 16.9999 8.8645 16.5768 9.41479 15.9126C9.64062 16.5846 9.9823 17.2034 10.4159 17.7454C9.53387 18.5261 8.37402 18.9999 7.10352 18.9999H3.10352C2.55123 18.9999 2.10352 18.5522 2.10352 17.9999Z" fill="white"/>
</svg>
