<svg width="12" height="12" viewBox="0 0 12 12" fill="none" xmlns="http://www.w3.org/2000/svg">
<path fill-rule="evenodd" clip-rule="evenodd" d="M10.875 3.17675C10.9726 3.07912 10.9726 2.92083 10.875 2.8232L9.47853 1.42675C9.32104 1.26926 9.05176 1.3808 9.05176 1.60353V2.50004H7.55371V2.50011V3.50004H9.05176V4.39642C9.05176 4.61915 9.32104 4.73069 9.47853 4.5732L10.875 3.17675ZM10.875 9.17675C10.9726 9.07912 10.9726 8.92083 10.875 8.8232L9.47853 7.42675C9.37043 7.31865 9.20965 7.3373 9.11945 7.43166C9.07824 7.47477 9.05176 7.53368 9.05176 7.60353V8.50004H7.55371V8.49997C6.72573 8.49945 6.05469 7.82808 6.05469 6.99997L6.05176 6.99998L6.05176 5.00004C6.05176 3.61966 4.93299 2.50056 3.55273 2.50004V2.49999H1.55273C1.27659 2.49999 1.05273 2.72384 1.05273 2.99999C1.05273 3.27613 1.27659 3.49999 1.55273 3.49999H3.55176V3.50004C4.36295 3.50004 5.02375 4.14395 5.05089 4.94854C5.05054 4.96567 5.05037 4.98285 5.05037 5.00006H5.05176V6.99998L5.05371 6.99997V7.00004H5.05176C5.05176 7.17127 5.06897 7.33848 5.10177 7.50004C5.17674 7.86939 5.33315 8.20918 5.55143 8.49984L5.55243 8.49851C6.00846 9.10657 6.73514 9.49998 7.55371 9.49998V9.50004H9.05176V10.3964C9.05176 10.6191 9.32104 10.7307 9.47853 10.5732L10.875 9.17675ZM1.05273 8.99999C1.05273 8.72384 1.27659 8.49999 1.55273 8.49999H3.55123V8.49985C4.01638 8.49956 4.432 8.28754 4.70693 7.95496C4.8198 8.29134 4.99066 8.60112 5.20764 8.8724C4.76693 9.26252 4.1875 9.49946 3.55273 9.49982V9.49999H1.55273C1.27659 9.49999 1.05273 9.27613 1.05273 8.99999ZM3.55126 4.49982L3.53388 4.49988H3.55123V5.49985L3.55178 5.49985V4.49996H3.57755L3.55126 4.49982ZM7.55133 3.50005C7.08576 3.50005 6.66973 3.71216 6.3946 4.04502C6.28173 3.70865 6.11086 3.39889 5.89388 3.12762C6.33494 2.73715 6.91497 2.50011 7.55037 2.50011L7.55133 2.50011V3.50005Z" fill="white"/>
</svg>
