<svg width="20" height="20" viewBox="0 0 20 20" fill="none" xmlns="http://www.w3.org/2000/svg">
<path fill-rule="evenodd" clip-rule="evenodd" d="M15.7984 7.62208L18.1258 5.29467C18.2886 5.13195 18.2886 4.86813 18.1258 4.70541L15.7984 2.378C15.5359 2.11552 15.0871 2.30142 15.0871 2.67263L15.0871 4.16671H12.5871V4.16687L12.5866 4.16687C11.5279 4.16687 10.5615 4.56168 9.82648 5.21211C10.1881 5.66412 10.473 6.18027 10.6612 6.74076C11.1196 6.18676 11.8123 5.83373 12.5875 5.83353V5.83337H15.0871L15.0871 7.32745C15.0871 7.69866 15.5359 7.88456 15.7984 7.62208ZM18.1258 15.2947C18.2886 15.132 18.2886 14.8681 18.1258 14.7054L15.7984 12.378C15.5359 12.1155 15.0871 12.3014 15.0871 12.6726L15.0871 14.1667H12.5871C11.2072 14.1658 10.0888 13.0469 10.0888 11.6667L10.0871 11.6667V8.33337C10.0871 6.0322 8.22165 4.16671 5.92047 4.16671H2.58714C2.1269 4.16671 1.75381 4.5398 1.75381 5.00004C1.75381 5.46028 2.1269 5.83337 2.58714 5.83337H5.92047C7.28724 5.83337 8.39782 6.93015 8.42013 8.2916C8.42009 8.29616 8.42005 8.30072 8.42002 8.30528L8.42017 8.33341H8.42047V11.6667V11.6667H8.42017C8.42017 11.9521 8.44886 12.2308 8.50352 12.5001C8.62845 13.1155 8.88902 13.6817 9.25268 14.1661L9.25285 14.1658C10.013 15.1784 11.2236 15.8334 12.5871 15.8334H15.0871L15.0871 17.3275C15.0871 17.6987 15.5359 17.8846 15.7984 17.6221L18.1258 15.2947ZM1.75381 15C1.75381 14.5398 2.1269 14.1667 2.58714 14.1667H5.91957V14.1666C6.69473 14.1663 7.38742 13.8133 7.84578 13.2592C8.03387 13.8194 8.31845 14.3353 8.67978 14.7871C7.94506 15.4377 6.97891 15.8328 5.92047 15.8333V15.8334H2.58714C2.1269 15.8334 1.75381 15.4603 1.75381 15ZM1.75195 11.6666C1.75195 11.6967 1.75227 11.7267 1.7529 11.7566V11.5767C1.75227 11.6066 1.75195 11.6366 1.75195 11.6666ZM5.91862 7.49996L5.90015 7.5H5.91957V9.16663H5.91987V7.50004H5.94473L5.91862 7.49996ZM12.5866 12.5002L12.6051 12.5002H12.5875V10.8335H12.5872V12.5001H12.5606L12.5866 12.5002Z" fill="white"/>
</svg>
