<svg width="16" height="16" viewBox="0 0 16 16" fill="none" xmlns="http://www.w3.org/2000/svg">
<path fill-rule="evenodd" clip-rule="evenodd" d="M14.4995 4.23571C14.6296 4.10553 14.6296 3.89448 14.4995 3.7643L12.6375 1.90238C12.4276 1.69239 12.0685 1.84111 12.0685 2.13808V3.33337H10.0695V3.33346C9.22196 3.33357 8.44829 3.65002 7.86016 4.17119C8.14934 4.53297 8.37702 4.94605 8.52738 5.3946C8.8941 4.95021 9.44905 4.66692 10.0702 4.66676V4.66671H12.0685V5.86194C12.0685 6.1589 12.4276 6.30763 12.6375 6.09764L14.4995 4.23571ZM14.4995 12.2357C14.6296 12.1055 14.6296 11.8945 14.4995 11.7643L12.6375 9.90238C12.4276 9.69239 12.0685 9.84111 12.0685 10.1381V11.3334H10.0695V11.3333C8.96557 11.3326 8.07085 10.4375 8.07085 9.33334L8.0685 9.33334V6.66671V6.66667C8.06849 4.82592 6.57638 3.33365 4.73568 3.33337V3.33331H2.06901C1.70082 3.33331 1.40234 3.63178 1.40234 3.99997C1.40234 4.36816 1.70082 4.66664 2.06901 4.66664H4.73517V4.66671C5.83974 4.66671 6.73517 5.56213 6.73517 6.66671L6.73517 9.33334L6.73621 9.33334V9.3334H6.73477C6.73477 9.56171 6.75773 9.78466 6.80145 10.0001C6.9014 10.4924 7.10987 10.9454 7.40082 11.3329L7.40156 11.3319C8.00963 12.1424 8.97835 12.6667 10.0695 12.6667V12.6667H12.0685V13.8619C12.0685 14.1589 12.4276 14.3076 12.6375 14.0976L14.4995 12.2357ZM1.40234 12C1.40234 11.6318 1.70082 11.3333 2.06901 11.3333H4.73294V11.3332H4.73317C5.35374 11.3332 5.9083 11.0506 6.27514 10.607C6.42561 11.0553 6.65331 11.4681 6.94245 11.8297C6.35481 12.35 5.58214 12.6659 4.73568 12.6664V12.6666H2.06901C1.70082 12.6666 1.40234 12.3682 1.40234 12ZM4.73376 5.99976L4.70112 5.99991H4.73294V7.33322H4.73317L4.7344 7.33322V5.99994H4.76883L4.73376 5.99976ZM10.07 10.0001H10.0702V8.66676H10.0698V10.0001L10.07 10.0001Z" fill="white"/>
</svg>
