<svg width="28" height="35" viewBox="0 0 28 35" fill="none" xmlns="http://www.w3.org/2000/svg">
<path fill-rule="evenodd" clip-rule="evenodd" d="M14.0003 34.1668C6.81201 31.9598 1.55078 25.2313 0.666992 19.1668V7.50016L14.0003 0.833496L27.3337 7.50016V19.1668C26.4499 25.2313 21.1886 31.9598 14.0003 34.1668ZM19.0003 27.5885V27.5002H19.0955L19.0003 27.5885ZM6.32134 18.8811C5.66994 18.2297 5.67052 17.1749 6.32134 16.524C6.97217 15.8732 8.02696 15.8726 8.67837 16.524L12.2139 20.0596L19.285 12.9885C19.9358 12.3377 20.9906 12.3371 21.642 12.9885C22.2934 13.6399 22.2928 14.6947 21.642 15.3455L13.3924 23.5951C12.7416 24.2459 11.6868 24.2465 11.0354 23.5951L6.32134 18.8811Z" fill="#17B5BF"/>
</svg>
