<svg width="181" height="54" viewBox="0 0 181 54" fill="none" xmlns="http://www.w3.org/2000/svg">
<path d="M23.1669 27.2242C22.0998 26.8596 21.1296 26.4951 20.2565 26.1305C19.3834 25.7416 18.6315 25.2798 18.0009 24.7451C17.3703 24.2104 16.8731 23.5784 16.5093 22.8493C16.1698 22.0958 16 21.1843 16 20.1149C16 18.049 16.7882 16.3962 18.3647 15.1566C19.9655 13.9171 22.1968 13.2973 25.0587 13.2973C26.1016 13.2973 27.0718 13.3702 27.9692 13.516C28.8666 13.6618 29.6305 13.8927 30.2611 14.2087C30.916 14.5004 31.4253 14.8893 31.7891 15.3754C32.1529 15.8372 32.3348 16.384 32.3348 17.016C32.3348 17.6479 32.1893 18.1948 31.8983 18.6566C31.6072 19.0941 31.2555 19.4708 30.8432 19.7868C30.3096 19.4465 29.5942 19.1548 28.6968 18.9118C27.7994 18.6444 26.8171 18.5108 25.75 18.5108C24.6585 18.5108 23.8582 18.6687 23.3488 18.9847C22.8395 19.2764 22.5849 19.6531 22.5849 20.1149C22.5849 20.4795 22.7425 20.7833 23.0578 21.0264C23.3731 21.2451 23.846 21.4517 24.4766 21.6461L26.4048 22.2659C28.6846 22.9951 30.4309 23.9308 31.6436 25.0732C32.8805 26.1912 33.499 27.7225 33.499 29.6669C33.499 31.7328 32.6865 33.4099 31.0615 34.6981C29.4365 35.962 27.0475 36.5939 23.8946 36.5939C22.7789 36.5939 21.736 36.4967 20.7658 36.3022C19.8199 36.1321 18.9832 35.8769 18.2556 35.5366C17.5522 35.1721 16.9944 34.7346 16.5821 34.2241C16.194 33.6894 16 33.0818 16 32.4012C16 31.6964 16.2062 31.1009 16.6185 30.6148C17.0308 30.1044 17.4795 29.7155 17.9645 29.4481C18.6436 29.9829 19.4683 30.4447 20.4384 30.8336C21.4328 31.2224 22.5121 31.4169 23.6763 31.4169C24.8647 31.4169 25.7015 31.2346 26.1865 30.87C26.6716 30.5054 26.9141 30.0801 26.9141 29.594C26.9141 29.1079 26.7201 28.7433 26.332 28.5002C25.944 28.2329 25.3983 27.9777 24.6949 27.7346L23.1669 27.2242Z" fill="#3B4758"/>
<path d="M53.9368 35.9741C53.6943 36.047 53.3062 36.12 52.7727 36.1929C52.2633 36.2658 51.7298 36.3022 51.1719 36.3022C50.6384 36.3022 50.1533 36.2658 49.7167 36.1929C49.3044 36.12 48.9527 35.9741 48.6617 35.7554C48.3706 35.5366 48.1402 35.245 47.9704 34.8804C47.8249 34.4915 47.7522 33.9932 47.7522 33.3856V25.2919C47.7522 24.2954 47.4975 23.6027 46.9882 23.2138C46.5031 22.8006 45.8968 22.594 45.1692 22.594C44.6841 22.594 44.2233 22.6548 43.7867 22.7763C43.3501 22.8979 42.9985 23.0437 42.7317 23.2138V35.9741C42.4891 36.047 42.1011 36.12 41.5675 36.1929C41.0582 36.2658 40.5246 36.3022 39.9668 36.3022C39.4332 36.3022 38.9481 36.2658 38.5115 36.1929C38.0992 36.12 37.7475 35.9741 37.4565 35.7554C37.1655 35.5366 36.935 35.245 36.7653 34.8804C36.6198 34.4915 36.547 33.9932 36.547 33.3856V12.24C36.8138 12.1914 37.2018 12.1306 37.7112 12.0577C38.2447 11.9605 38.7783 11.9119 39.3119 11.9119C39.8455 11.9119 40.3184 11.9483 40.7307 12.0212C41.1673 12.0942 41.5311 12.24 41.8222 12.4587C42.1132 12.6775 42.3315 12.9813 42.477 13.3702C42.6468 13.7348 42.7317 14.2209 42.7317 14.8285V18.4014C43.047 18.2799 43.5199 18.1462 44.1505 18.0003C44.8054 17.8302 45.5208 17.7451 46.2969 17.7451C48.6981 17.7451 50.5656 18.3528 51.8995 19.568C53.2577 20.759 53.9368 22.5454 53.9368 24.9274V35.9741Z" fill="#3B4758"/>
<path d="M76.0547 27.1513C76.0547 28.6582 75.8243 30.0072 75.3635 31.1981C74.9027 32.3648 74.2478 33.3492 73.399 34.1512C72.5743 34.9533 71.5799 35.5609 70.4158 35.9741C69.2516 36.3873 67.954 36.5939 66.5231 36.5939C65.0921 36.5939 63.7945 36.3752 62.6303 35.9377C61.4662 35.5002 60.4596 34.8804 59.6108 34.0783C58.7861 33.2519 58.1434 32.2554 57.6826 31.0888C57.2218 29.9221 56.9914 28.6096 56.9914 27.1513C56.9914 25.7173 57.2218 24.4169 57.6826 23.2503C58.1434 22.0836 58.7861 21.0993 59.6108 20.2972C60.4596 19.4708 61.4662 18.8389 62.6303 18.4014C63.7945 17.9639 65.0921 17.7451 66.5231 17.7451C67.954 17.7451 69.2516 17.976 70.4158 18.4378C71.5799 18.8753 72.5743 19.5073 73.399 20.3337C74.2478 21.1357 74.9027 22.1201 75.3635 23.2868C75.8243 24.4534 76.0547 25.7416 76.0547 27.1513ZM63.3216 27.1513C63.3216 28.6339 63.6005 29.7763 64.1583 30.5783C64.7404 31.3561 65.5408 31.745 66.5594 31.745C67.5781 31.745 68.3542 31.344 68.8878 30.5419C69.4456 29.7398 69.7245 28.6096 69.7245 27.1513C69.7245 25.693 69.4456 24.5749 68.8878 23.7972C68.3299 22.9951 67.5417 22.594 66.5231 22.594C65.5044 22.594 64.7162 22.9951 64.1583 23.7972C63.6005 24.5749 63.3216 25.693 63.3216 27.1513Z" fill="#3B4758"/>
<path d="M87.1849 17.7451C88.6401 17.7451 89.9862 17.9396 91.2231 18.3285C92.4843 18.693 93.5636 19.2642 94.461 20.042C95.3583 20.8198 96.0617 21.8041 96.571 22.9951C97.0804 24.1617 97.335 25.5593 97.335 27.1878C97.335 28.7433 97.1167 30.1044 96.6802 31.271C96.2436 32.4377 95.6251 33.4221 94.8248 34.2241C94.0244 35.0019 93.0543 35.5852 91.9143 35.9741C90.7987 36.363 89.5496 36.5575 88.1671 36.5575C87.1242 36.5575 86.1541 36.3995 85.2567 36.0835V42.1355C85.0142 42.2084 84.6261 42.2814 84.0925 42.3543C83.559 42.4515 83.0132 42.5001 82.4554 42.5001C81.9218 42.5001 81.4368 42.4636 81.0002 42.3907C80.5879 42.3178 80.2362 42.172 79.9452 41.9532C79.6541 41.7345 79.4358 41.4307 79.2903 41.0418C79.1448 40.6772 79.072 40.1911 79.072 39.5835V22.0836C79.072 21.4274 79.2054 20.8927 79.4722 20.4795C79.7633 20.0663 80.1513 19.6896 80.6364 19.3493C81.3883 18.8632 82.322 18.4743 83.4377 18.1826C84.5534 17.891 85.8024 17.7451 87.1849 17.7451ZM87.2576 31.6721C89.7558 31.6721 91.0048 30.1773 91.0048 27.1878C91.0048 25.6322 90.6895 24.4777 90.0589 23.7242C89.4526 22.9708 88.5673 22.594 87.4032 22.594C86.9423 22.594 86.53 22.6548 86.1662 22.7763C85.8024 22.8736 85.4871 22.9951 85.2203 23.1409V31.1617C85.5114 31.3075 85.8267 31.429 86.1662 31.5263C86.5058 31.6235 86.8696 31.6721 87.2576 31.6721Z" fill="#3B4758"/>
<path d="M109.703 36.5939C108.272 36.5939 106.938 36.3995 105.701 36.0106C104.488 35.5974 103.421 34.9898 102.5 34.1877C101.602 33.3856 100.887 32.3769 100.353 31.1617C99.8438 29.9464 99.5892 28.5245 99.5892 26.8961C99.5892 25.2919 99.8438 23.9187 100.353 22.7763C100.887 21.6097 101.578 20.6618 102.427 19.9326C103.276 19.1792 104.246 18.6323 105.337 18.292C106.429 17.9274 107.544 17.7451 108.684 17.7451C109.97 17.7451 111.134 17.9396 112.177 18.3285C113.244 18.7174 114.153 19.2521 114.905 19.9326C115.681 20.6132 116.276 21.4274 116.688 22.3753C117.125 23.3232 117.343 24.3562 117.343 25.4742C117.343 26.3006 117.112 26.9325 116.652 27.37C116.191 27.8075 115.548 28.0871 114.723 28.2086L105.737 29.5575C106.004 30.3596 106.55 30.9672 107.375 31.3804C108.199 31.7693 109.145 31.9637 110.212 31.9637C111.207 31.9637 112.14 31.8422 113.014 31.5992C113.911 31.3318 114.639 31.028 115.196 30.6877C115.584 30.9308 115.912 31.271 116.179 31.7085C116.445 32.146 116.579 32.6078 116.579 33.0939C116.579 34.1877 116.07 35.0019 115.051 35.5366C114.275 35.9498 113.402 36.2293 112.431 36.3752C111.461 36.521 110.552 36.5939 109.703 36.5939ZM108.684 22.2659C108.102 22.2659 107.593 22.3631 107.156 22.5576C106.744 22.752 106.404 23.0072 106.138 23.3232C105.871 23.6149 105.665 23.9551 105.519 24.344C105.398 24.7086 105.325 25.0853 105.301 25.4742L111.522 24.4534C111.449 23.9673 111.182 23.4812 110.722 22.9951C110.261 22.509 109.582 22.2659 108.684 22.2659Z" fill="#3B4758"/>
<path d="M126.504 35.9741C126.262 36.047 125.874 36.12 125.34 36.1929C124.831 36.2658 124.297 36.3022 123.74 36.3022C123.206 36.3022 122.721 36.2658 122.284 36.1929C121.872 36.12 121.52 35.9741 121.229 35.7554C120.938 35.5366 120.708 35.245 120.538 34.8804C120.393 34.4915 120.32 33.9932 120.32 33.3856V22.4482C120.32 21.8892 120.417 21.4152 120.611 21.0264C120.829 20.6132 121.132 20.2486 121.52 19.9326C121.908 19.6166 122.381 19.3371 122.939 19.0941C123.521 18.8267 124.14 18.5958 124.795 18.4014C125.449 18.2069 126.129 18.0611 126.832 17.9639C127.535 17.8424 128.239 17.7816 128.942 17.7816C130.106 17.7816 131.028 18.0125 131.707 18.4743C132.386 18.9118 132.726 19.641 132.726 20.6618C132.726 21.0021 132.677 21.3423 132.58 21.6826C132.483 21.9986 132.362 22.2902 132.216 22.5576C131.707 22.5576 131.185 22.5819 130.652 22.6305C130.118 22.6791 129.597 22.752 129.087 22.8493C128.578 22.9465 128.093 23.0559 127.632 23.1774C127.196 23.2746 126.82 23.3961 126.504 23.542V35.9741Z" fill="#3B4758"/>
<path d="M136.002 36.0106C135.614 35.6703 135.299 35.2693 135.056 34.8075C134.838 34.3457 134.729 33.8231 134.729 33.2398C134.729 32.7537 134.838 32.2797 135.056 31.8179C135.299 31.3318 135.59 30.8822 135.929 30.469L142.187 23.1045H135.493C135.347 22.8371 135.202 22.4968 135.056 22.0836C134.935 21.6704 134.874 21.2208 134.874 20.7347C134.874 19.884 135.056 19.2764 135.42 18.9118C135.808 18.5229 136.317 18.3285 136.948 18.3285H148.408C148.796 18.6687 149.099 19.0698 149.317 19.5316C149.56 19.9934 149.681 20.5159 149.681 21.0993C149.681 21.5854 149.56 22.0715 149.317 22.5576C149.099 23.0194 148.82 23.4569 148.481 23.8701L142.369 31.2346H149.499C149.645 31.5019 149.778 31.8422 149.899 32.2554C150.045 32.6686 150.118 33.1183 150.118 33.6044C150.118 34.455 149.924 35.0748 149.536 35.4637C149.172 35.8283 148.675 36.0106 148.044 36.0106H136.002Z" fill="#3B4758"/>
<path d="M145.984 4.85294C145.984 3.55345 147.037 2.5 148.337 2.5C149.636 2.5 150.689 3.55345 150.689 4.85294V9.55882C150.689 10.8583 149.636 11.9118 148.337 11.9118C147.037 11.9118 145.984 10.8583 145.984 9.55882V4.85294Z" fill="#FFC045"/>
<path d="M136.689 10.6517C135.77 9.73286 135.77 8.24306 136.689 7.32418C137.608 6.4053 139.098 6.4053 140.017 7.32418L143.344 10.6517C144.263 11.5706 144.263 13.0604 143.344 13.9793C142.425 14.8982 140.936 14.8982 140.017 13.9793L136.689 10.6517Z" fill="#FFC045"/>
<path d="M153.327 27.2895C152.409 26.3706 152.409 24.8808 153.327 23.9619C154.246 23.0431 155.736 23.0431 156.655 23.9619L159.983 27.2895C160.901 28.2084 160.901 29.6982 159.983 30.6171C159.064 31.5359 157.574 31.5359 156.655 30.6171L153.327 27.2895Z" fill="#FFC045"/>
<path d="M157.748 21.3235C156.449 21.3235 155.395 20.2701 155.395 18.9706C155.395 17.6711 156.449 16.6176 157.748 16.6176H162.454C163.754 16.6176 164.807 17.6711 164.807 18.9706C164.807 20.2701 163.754 21.3235 162.454 21.3235H157.748Z" fill="#FFC045"/>
<path d="M156.655 13.9793C155.736 14.8982 154.246 14.8982 153.327 13.9793C152.408 13.0604 152.408 11.5706 153.327 10.6518L156.655 7.32419C157.574 6.40531 159.063 6.40531 159.982 7.32419C160.901 8.24307 160.901 9.73287 159.982 10.6518L156.655 13.9793Z" fill="#FFC045"/>
</svg>
