<svg width="34" height="27" viewBox="0 0 34 27" fill="none" xmlns="http://www.w3.org/2000/svg">
<path d="M0.333008 1.83317C0.333008 0.912696 1.0792 0.166504 1.99967 0.166504H18.6663C19.5868 0.166504 20.333 0.912697 20.333 1.83317V23.4998H15.333C14.4125 23.4998 13.6935 22.7332 13.3924 21.8633C12.7146 19.9056 10.8546 18.4998 8.66634 18.4998C6.47804 18.4998 4.61809 19.9056 3.94029 21.8633C3.63915 22.7332 2.92015 23.4998 1.99967 23.4998V23.4998C1.0792 23.4998 0.333008 22.7536 0.333008 21.8332V1.83317Z" fill="#0DA678"/>
<path d="M11.9997 23.4998C11.9997 21.6588 10.5073 20.1665 8.66634 20.1665C6.82542 20.1665 5.33301 21.6588 5.33301 23.4998C5.33301 25.3409 6.82542 26.8332 8.66634 26.8332C10.5073 26.8332 11.9997 25.3409 11.9997 23.4998Z" fill="#0DA678"/>
<path fill-rule="evenodd" clip-rule="evenodd" d="M20.333 1.83317L32.745 8.03918C33.3097 8.3215 33.6663 8.89861 33.6663 9.52989V22.6665C33.6663 23.1267 33.2932 23.4998 32.833 23.4998V23.4998C32.3728 23.4998 32.007 23.1239 31.9311 22.67C31.5358 20.3035 29.4784 18.4998 26.9997 18.4998C24.8114 18.4998 22.9514 19.9056 22.2736 21.8633C21.9725 22.7332 21.2535 23.4998 20.333 23.4998V23.4998V1.83317ZM21.9997 7.86323C21.9997 6.62426 23.3035 5.81843 24.4117 6.37252L31.0784 9.70585C31.643 9.98817 31.9997 10.5653 31.9997 11.1966V11.8332C31.9997 12.7536 31.2535 13.4998 30.333 13.4998H23.6663C22.7459 13.4998 21.9997 12.7536 21.9997 11.8332V7.86323Z" fill="#0DA678"/>
<path d="M30.333 23.4998C30.333 21.6588 28.8406 20.1665 26.9997 20.1665C25.1588 20.1665 23.6663 21.6588 23.6663 23.4998C23.6663 25.3409 25.1588 26.8332 26.9997 26.8332C28.8406 26.8332 30.333 25.3409 30.333 23.4998Z" fill="#0DA678"/>
</svg>
